<svg data-v-423bf9ae="" xmlns="http://www.w3.org/2000/svg" viewBox="0 0 298.92553349360935 60" class="font"><!----><!----><!----><g data-v-423bf9ae="" id="ce831f9f-cd96-4646-812e-48c7345085d6" fill="white" transform="matrix(5.655042595806296,0,0,5.655042595806296,-3.166821522809556,-0.22620120202757477)"><path d="M10.68 1.29L10.58 0.70L6.86 0.70L6.76 1.29L7.98 1.75L7.98 5.15L3.26 5.15L3.26 1.75L4.48 1.29L4.38 0.70L0.66 0.70L0.56 1.29L1.78 1.75L1.78 9.45L0.57 9.91L0.69 10.50L4.35 10.50L4.45 9.91L3.26 9.45L3.26 5.74L7.98 5.74L7.98 9.45L6.76 9.91L6.86 10.50L10.56 10.50L10.65 9.91L9.46 9.45L9.46 1.75ZM14.04 9.70L14.04 3.96L13.40 3.81L11.91 3.96L12.01 4.47L12.73 4.47L12.73 9.70L11.80 10.00L11.91 10.50L14.84 10.50L14.95 10.00ZM13.34 0.74C12.94 0.74 12.59 1.08 12.59 1.50C12.59 1.92 12.94 2.25 13.34 2.25C13.76 2.25 14.11 1.92 14.11 1.50C14.11 1.08 13.76 0.74 13.34 0.74ZM18.30 9.70L18.30 0.20L17.67 0.04L16.18 0.20L16.28 0.70L16.98 0.70L16.98 9.70L16.07 10.00L16.17 10.50L19.11 10.50L19.21 10.00ZM22.55 9.70L22.55 0.20L21.92 0.04L20.44 0.20L20.54 0.70L21.24 0.70L21.24 9.70L20.33 10.00L20.43 10.50L23.37 10.50L23.46 10.00ZM24.84 3.96L24.84 5.47L25.34 5.57L25.69 4.47L29.13 4.47L28.39 4.84L24.37 10.00L24.63 10.50L29.95 10.50L29.95 8.65L29.43 8.55L28.98 10.00L25.34 10.00L26.26 9.56L30.30 4.47L29.83 3.96ZM34.50 3.81C32.42 3.81 31.21 5.12 31.21 7.22C31.21 9.32 32.28 10.65 34.50 10.65C36.72 10.65 37.79 9.38 37.79 7.22C37.79 5.07 36.57 3.81 34.50 3.81ZM34.50 4.33C35.67 4.33 36.44 5.39 36.44 7.18C36.44 8.96 35.69 10.14 34.50 10.14C33.31 10.14 32.56 8.95 32.56 7.18C32.56 5.42 33.33 4.33 34.50 4.33ZM41.06 9.70L41.06 4.84C41.51 4.63 42.01 4.47 42.56 4.47C43.30 4.47 43.95 5.00 43.95 5.89L43.95 9.70L43.04 10.00L43.15 10.50L46.07 10.50L46.17 10.00L45.26 9.70L45.26 6.10C45.26 4.62 44.41 3.81 42.88 3.81C42.15 3.81 41.65 4.05 41.06 4.33L40.56 3.81L38.95 3.96L39.05 4.47L39.75 4.47L39.75 9.70L38.84 10.00L38.93 10.50L41.87 10.50L41.99 10.00ZM48.73 6.54C48.85 5.24 49.41 4.33 50.61 4.33C51.58 4.33 52.11 4.87 52.11 5.89C52.11 6.09 52.07 6.36 52.01 6.54ZM50.95 10.00C49.43 10.00 48.71 8.79 48.71 7.11L48.71 7.04L53.19 7.04C53.30 6.80 53.42 6.38 53.42 6.01C53.42 4.66 52.23 3.81 50.61 3.81C48.65 3.81 47.22 5.07 47.22 7.22C47.22 9.30 48.38 10.65 50.86 10.65C51.77 10.65 52.67 10.37 53.27 9.83L52.95 9.37C52.37 9.73 51.69 10.00 50.95 10.00Z"></path></g><!----><!----></svg>